<svg width="1412" height="1224" viewBox="0 0 1412 1224" fill="none" xmlns="http://www.w3.org/2000/svg">
<path d="M1342.9 323.163C1273.96 318.353 1250.72 317.403 1172.09 316.187L1130.39 315.645L1141.74 304.513L1153.37 293.318L1179.53 293.935C1200.58 294.46 1212.55 293.066 1237.22 286.825C1254.52 282.479 1291.32 274.21 1319.04 268.208C1347.04 262.143 1369.61 257.255 1368.91 256.807C1368.57 256.583 1348.21 256.505 1323.38 256.498C1273.44 256.547 1224.41 263.576 1187.9 275.968C1175.93 280.058 1166.11 283.081 1165.99 282.509C1165.93 282.224 1168.51 278.972 1171.96 275.534C1176.87 270.582 1188.5 266.268 1219.9 257.971C1265.12 245.784 1264.33 246.255 1307.27 209.734C1318.36 200.154 1327.74 195.131 1342 190.546C1366.87 182.467 1356.7 181.081 1323.5 187.973C1294 194.061 1270.3 203.383 1242.24 220.229C1229.74 227.423 1219.34 233.265 1218.99 233.042C1218.64 232.818 1225.27 220.613 1233.69 205.628C1247.4 180.524 1296.24 67.6448 1294.09 66.016C1292.29 64.6111 1230.69 139.274 1215.44 161.421C1200.58 182.587 1187.51 214.734 1180.55 246.153C1176.97 262.781 1166.38 281.529 1159.8 282.952C1158.09 283.323 1159.49 277.337 1162.86 269.428C1173.4 243.514 1178.55 217.571 1179.42 185.675C1180.22 153.494 1178.49 105.412 1176.32 95.4115C1174.61 88.9017 1153.3 194.921 1149.74 226.802C1148.44 238.75 1147.03 258.498 1147.06 271.055L1146.62 293.884L1127.99 308.688C1117.51 316.939 1108.95 322.982 1108.76 322.125C1108.58 321.267 1114.98 298.344 1123.15 271.149C1131.32 243.953 1139.48 212.573 1141.25 201.42C1144.25 180.73 1149.84 49.0989 1147.47 47.8177C1146.42 47.1462 1128.49 127.308 1114.02 198.642C1110.83 214.289 1104.99 250.851 1101.22 280.385C1094.15 333.366 1091.25 342.071 1079.08 345.303C1077.08 345.737 1079.39 328.784 1083.82 307.784C1095.28 252.955 1096.08 238.722 1092.33 182.701C1088.69 127.252 1091.08 101.009 1105.79 37.6998C1110.46 17.8426 1113.98 0.928309 1113.79 0.0711342C1113.61 -0.786041 1108.83 8.92327 1103.18 21.5135C1090.18 51.2511 1081.31 84.8796 1076.76 123.256C1074.67 139.861 1069.1 167.99 1064.5 185.437C1052.37 230.242 1048.78 289.647 1054.62 342.825L1056.64 361.83L1043.94 370.863C1036.68 376.024 1030.26 379.51 1029.27 379.124C1028.52 378.39 1031 347.042 1035.39 309.299C1044.02 231.751 1044.29 198.488 1036.86 142.067C1034 120.552 1029.5 83.2371 1026.72 59.3126C1020.91 11.8112 1020.7 9.46353 1019.36 11.5492C1018.91 12.2444 1017.16 42.8353 1015.79 79.3264C1014.42 115.817 1012.6 159.885 1011.62 177.447C1009.2 227.029 1009.32 285.63 1012.18 338.855C1013.52 365.784 1013.55 389.408 1011.93 391.556C1009.02 396.075 966.75 424.672 965.012 423.553C964.317 423.105 970.677 390.319 979.104 350.505C987.593 310.976 995.964 263.995 997.804 246.247C1000.74 218.39 999.771 16.3905 996.704 14.6616C994.966 13.5424 972.095 180.025 962.778 261.311C958.089 301.812 953.127 357.626 951.963 385.398C949.878 431.018 948.992 436.594 942.915 440.303C939.224 442.598 928.5 449.707 918.794 455.997L901.198 467.286L905.099 449.391C907.467 439.605 915.155 407.429 922.606 378.296C945.256 288.139 947.644 268.777 947.904 173.299C947.945 136.198 948.254 90.6638 948.356 71.7968C948.519 53.2155 948.382 37.3914 947.687 36.9437C946.992 36.496 944.162 49.6722 941.503 66.4009C938.783 82.8438 930.798 128.844 923.737 168.063C903.728 280.083 897.657 323.874 890.503 404.094L883.663 478.861L859.48 494.269C846.022 502.568 834.317 509.291 833.56 508.557C832.579 508.172 840.54 460.681 851.155 403.343C869.454 302.761 869.892 297.88 868.372 256.332C866.333 211.007 868.72 191.645 889.029 94.8161C902.082 32.1636 903.678 24.3397 902.535 24.5873C901.963 24.711 898.005 35.4395 893.909 48.2918C889.465 60.9202 882.058 81.9676 876.981 94.4341C864.573 125.538 855.07 159.005 847.029 197.838C843.475 215.957 838.33 235.019 835.668 240.681C826.075 261.304 815.553 295.59 809.979 323.719C803.581 357.709 802.25 392.995 805.187 465.945C806.17 495.345 806.696 521.255 806.048 523.789C805.339 526.036 795.657 533.817 784.361 541.049C763.807 553.876 763.807 553.876 764.446 547.157C764.56 543.543 771.779 492.623 780.022 434.004C795.06 326.651 796.013 314.479 792.039 233.977C791.393 218.563 790.506 177.176 790.347 141.913C789.902 106.713 789.266 77.536 788.285 77.1502C787.59 76.7025 786.99 82.2168 786.537 89.7931C785.773 113.889 776.465 199.361 771.387 229.775C768.666 246.218 760.806 274.842 753.762 293.418C727.489 361.327 724.467 398.475 731.729 563.217C732.095 571.812 730.629 573.326 711.827 584.577C700.693 591.177 691.088 596.547 690.678 596.038C689.983 595.59 690.751 582.561 692.105 566.713C696.413 520.313 698.904 464.136 698.068 436.797C697.445 422.873 691.653 379.557 685.014 340.613C674.861 282.687 672.986 265.744 674.378 248.692C676.886 218.834 688.123 175.42 702.521 139.697C709.59 122.611 714.519 108.083 713.539 107.697C707.977 104.115 671.38 175.457 660.534 211.009C649.911 246.213 648.9 269.166 654.934 320.506C661.758 378.255 660.832 402.984 650.186 436.698C642.703 460.155 644.063 484.389 656.334 549.334L667.739 610.279L637.455 627.905C620.692 637.518 605.906 645.208 604.353 644.946C602.168 644.522 604.817 623.607 625.249 480.387C636.327 401.71 635.234 369.043 617.606 244.834C609.958 192.947 603.371 150.103 602.961 149.593C601.509 148.412 601.347 149.045 600.138 202.851C598.952 258.147 593.657 311.043 581.998 385.658C564.637 494.711 564.293 505.554 574.166 603.623C577.397 633.734 579.066 659.396 578.395 660.439C576.032 663.344 534.977 685.098 533.301 684.264C532.606 683.817 540.063 629.854 549.578 564.678C569.542 431.729 569.38 432.362 566.691 360.556C565.607 332.075 564.46 274.292 564.43 232.72C564.338 190.862 564.056 155.028 563.746 153.6C563.089 151.947 561.288 168.49 559.395 190.138C551.182 290.33 540.438 353.978 525.006 393.215C494.466 470.424 489.691 509.148 494.094 645.494L496.146 706.071L471.53 719.479C457.887 726.921 446.791 732.315 446.667 731.744C446.543 731.172 450.645 711.439 455.371 687.682C469.072 622.496 471.212 601.991 470.374 545.637C469.182 448.978 468.539 444.63 442.144 317.235C426.974 243.047 417.863 203.741 417.51 210.398C417.257 216.136 419.465 235.999 422.506 254.185C432.297 314.582 429.573 366.921 412.48 449.593C397.931 519.15 397.883 581.08 411.153 719.693C414.146 752.846 414.369 752.499 392.44 761.735L382.872 765.901L382.794 739.296C382.966 724.9 383.765 688.533 384.496 658.761C386.707 577.817 385.257 558.688 370.725 477.78C363.49 437.469 355.509 382.663 353.306 355.919C349.058 308.68 343.931 224.24 344.428 208.577C344.419 204.392 343.8 201.534 343.128 202.577C341.114 205.706 332.933 311.574 333.141 331.869C333.582 356.003 330.44 403.647 325.265 446.047C313.737 543.367 316.372 590.059 340.728 719.092C347.073 753.912 352.118 782.732 351.67 783.427C351.285 784.408 304.886 809.114 302.886 809.547C302.601 809.609 304.049 799.724 306.207 787.59C308.651 775.395 311.501 752.642 313.14 736.733L315.895 708.018L298.073 625.729C279.261 538.869 264.57 487.609 230.872 391.41C202.826 311.634 200.083 308.639 213.226 370.703C223.584 419.91 225.978 440.629 229.6 509.84C230.97 538.26 258.699 706.347 272.065 768.063C283.514 820.922 283.452 820.636 264.341 830.459C251.94 836.734 248.288 837.824 247.669 834.967C247.236 832.967 247.49 809.281 248.492 782.142C249.958 733.665 249.935 732.175 239.943 691.564C228.242 644.443 224.161 636.652 191.621 602.42C172.608 582.308 117.001 532.731 96.6925 517.686L87.1215 510.786L95.0019 519.548C99.3206 524.296 118.929 545.775 138.475 566.967C187.31 619.806 191.899 627.187 199.944 664.331C204.895 687.189 206.027 700.704 204.868 721.595C203.818 745.752 204.818 754.51 214.595 799.654L225.61 850.513L214.8 855.846C208.885 858.921 199.666 863.311 194.608 866.201C189.489 868.806 184.308 871.124 183.45 871.31C182.593 871.496 181.284 861.31 180.685 848.876C178.912 813.066 165.617 755.821 152.671 727.814C138.535 697.074 133.398 691.307 108.294 677.6C80.8182 662.612 74.6231 658.868 64.6808 650.253L56.2527 643.105L64.852 653.805C89.3212 685.299 105.914 719.096 113.464 753.954C116.681 768.812 126.584 796.58 140.11 828.648C152.199 856.84 161.011 880.956 160.116 882.346C158.039 885.189 58.7475 933.615 22.7026 949.498C10.6877 954.792 0.672786 959.654 0.2251 960.349C-1.11796 962.434 34.8674 975.281 39.439 974.29C42.8677 973.548 199.335 889.407 212.507 881.17C215.688 879.284 217.769 887.508 226.489 934.677C234.033 976.416 239.555 999.151 248.267 1024.19C271.876 1091.76 273.824 1095.23 327.305 1162.61C354.393 1196.53 377.425 1224.15 378.567 1223.9C379.425 1223.71 378.93 1221.43 377.23 1219.1C362.479 1196.57 304.83 1090.61 299.673 1076.47C296.017 1066.49 287.82 1034.16 281.322 1004.16C270.74 955.305 267.841 946.061 252.02 910.302C242.498 888.434 234.413 870.443 234.351 870.157C234.104 869.014 261.739 854.354 265.739 853.488C267.739 853.055 296.889 886.825 330.467 928.609C363.984 970.108 400.157 1012.83 410.756 1023.09C421.765 1033.87 457.578 1061.11 494.1 1086.11C529.518 1110.14 580.602 1145.74 607.577 1165.33C681.712 1218.97 684.307 1219.9 631.552 1176.59C598.026 1148.85 569.818 1116.67 528.241 1058.67C492.583 1008.66 468.827 985.988 354.28 893.539L287.945 840.004L307.218 829.548C317.905 823.644 329.958 817.145 334.158 814.441C338.42 812.022 342.173 810.013 342.744 809.889C343.601 809.703 407.207 875.496 440.69 911.318C490.567 964.828 533.975 1000.89 568.541 1018.24C601.368 1034.46 723.919 1089.28 726.49 1088.72C727.633 1088.47 694.015 1065.84 651.607 1038.53L574.662 988.493L529.595 930.95C478.323 865.477 461.219 850.038 404.954 816.756C386.431 805.811 371.422 795.901 372.094 794.858C373.884 792.077 429.764 761.429 435.131 759.967C439.988 758.915 470.129 797.256 512.958 858.275C535.017 889.692 566.362 928.072 583.428 944.716C590.304 951.603 619.102 974.082 647.306 995.194C675.795 1016.24 720.955 1050.73 747.668 1071.87C814.103 1124.49 821.465 1129.47 785.681 1096.84C751.473 1065.96 723.976 1031.53 686.361 973.873C650.446 918.536 624.433 890.966 519.115 798.313C487.65 770.429 462.442 746.574 463.052 745.245C463.924 742.364 487.682 729.142 489.196 730.609C492.92 733.99 556.711 800.64 578.938 824.542C616.74 865.113 653.304 899.969 673.142 914.218C682.365 920.896 706.103 935.198 726.054 945.833C779.329 974.976 844.137 1011.79 899.421 1044.69C926.511 1060.66 948.386 1073.27 948.2 1072.41C947.953 1071.27 930.958 1059.1 909.978 1045.09C863.028 1013.38 831.987 983.314 775.625 915.056C742.418 874.985 708.096 847.72 588.819 767.961L512.198 716.654L534.366 704.374C546.643 697.528 559.268 690.905 562.635 689.876C567.082 688.315 577.187 696.297 614.161 731.662C669.181 784.059 670.572 784.954 745.526 839.614C778.186 863.35 812.261 889.473 821.284 897.988C841.826 916.871 897.412 976.024 937.124 1021.27C953.356 1039.59 966.659 1054.06 967.169 1053.65C969.631 1049.82 772.805 802.596 748.516 778.841C723.47 754.353 643.02 707.464 592.135 687.974C585.269 685.273 579.545 682.325 579.298 681.182C578.926 679.468 636.621 647.529 642.621 646.23C644.335 645.859 663.153 660.927 684.043 680.034C819.297 801.8 849.291 820.131 979.9 862.438C1069.36 891.523 1150.16 913.806 1149.17 909.234C1149.05 908.663 1124.21 897.589 1093.9 884.71C1052.33 866.792 1024.98 852.375 981.493 825.6C950.047 806.087 902.348 777.83 875.22 763.066C830.736 738.6 671.308 636.427 670.256 631.57C669.823 629.57 714.807 602.478 716.321 603.945C722.192 608.955 861.366 721.197 882.618 737.833C918.207 765.422 966.191 793.617 997.395 805.105C1010.43 810.059 1056.7 827.558 1100.15 844.472C1143.53 861.1 1184.95 876.956 1192.11 879.595L1205.08 884.262L1197.88 878.643C1194.22 875.547 1164.84 855.887 1133.02 834.66C1101.26 813.719 1039.37 772.384 995.605 742.976C912.951 687.291 874.167 664.283 789.007 620.508C761.431 606.439 738.065 593.851 737.184 592.546C736.365 591.527 745.947 584.666 758.162 577.533L780.492 564.621L862.895 608.095C1009.08 685.018 1020.15 689.2 1119.45 709.871C1153.92 717.064 1204.72 727.897 1232.34 733.881C1310.76 750.697 1310.25 751.107 1251.72 726.692C1230.02 717.633 1169.05 691.651 1116.28 668.979C1004.44 620.812 959.792 603.86 877.674 578.272C844.655 568.074 813.474 558.076 808.631 556.432L799.293 553.37L831.653 532.901L863.727 512.493L943.077 551.544C1058.55 608.197 1057.57 607.811 1194 634.2C1242.72 643.689 1283.96 651.807 1285.58 652.355C1286.9 652.965 1288.05 652.717 1287.86 651.86C1287.37 649.574 1054.13 557.405 1017.92 544.907C1000.16 538.881 962.299 527.04 933.613 518.895C904.928 510.749 882.266 502.795 883.385 501.057C885.4 497.928 924.545 471.502 928.26 470.698C929.689 470.389 971.745 486.407 1022.06 506.021C1072.15 525.983 1119.27 543.296 1127.1 544.892C1134.92 546.488 1162.55 549.776 1188.57 552.517C1214.59 555.257 1262.44 560.747 1295.08 565.045C1327.44 569.405 1355.07 572.693 1356.5 572.383C1357.64 572.136 1341.17 567.925 1319.48 563.052C1262.56 550.251 1220.49 536.928 1155.47 511.527C1092.34 486.612 1048.33 474.008 991.524 464.475C970.995 460.844 953.223 457.514 951.833 456.619C949.523 455.623 991.455 424.107 996.599 422.993C997.741 422.746 1033.33 432.387 1076.07 444.667C1142.03 463.287 1158.66 466.865 1188.33 468.515C1207.38 469.474 1251.63 472.154 1286.47 474.18C1321.37 476.493 1350.29 477.41 1350.73 476.714C1351.18 476.019 1342.79 474.547 1332.27 472.937C1293.2 467.938 1252.05 458.901 1177.54 439.442C1107.41 420.831 1092.8 418.311 1017.21 410.452C1013.25 410.113 1041.6 386.325 1047.89 384.963C1049.03 384.716 1089.18 396.062 1136.83 410.271C1193.12 427.095 1227.6 435.779 1235.85 435.19C1242.67 434.909 1279.57 436.789 1317.64 439.911C1355.64 442.747 1385.66 444.621 1384.27 443.726C1375.77 438.987 1208.15 402.601 1145.42 391.957C1105.06 385.144 1068.44 379.017 1064.07 378.169C1056.53 376.512 1056.75 376.164 1073.28 362.713L1090.1 349.2L1162.03 365.03C1212.04 376.334 1241.53 381.313 1259.19 381.376C1273.24 381.325 1305.77 382.356 1331.36 383.097C1357 384.123 1378.06 384.648 1378.57 384.239C1379.85 381.867 1212.24 356.548 1161.46 351.391C1129.65 348.112 1102.24 344.477 1100.62 343.929C1099.23 343.034 1103.79 337.858 1110.7 332.472L1123.57 322.807L1162.18 331.196C1228.63 345.221 1251.48 347.151 1290.9 341.307C1310.06 338.651 1344.87 335.002 1367.9 333.604C1391.21 332.144 1410.85 330.283 1411.24 329.302C1411.69 328.607 1381.19 325.938 1342.9 323.163Z" fill="#FFF6DA"/>
</svg>
