<svg width="714" height="714" viewBox="0 0 714 714" fill="none" xmlns="http://www.w3.org/2000/svg">
<path d="M528.557 102.319L123.601 218.384C88.2583 228.515 77.1277 273.112 103.578 298.652L406.546 591.353C432.988 616.899 477.176 604.237 486.067 568.574L588.054 159.816C596.957 124.124 563.899 92.1883 528.557 102.319Z" fill="#FFF1C9"/>
<path d="M599.988 576.512H78.3186C77.9399 576.512 77.5767 576.362 77.3089 576.094C77.0411 575.826 76.8906 575.463 76.8906 575.084C76.8906 574.706 77.0411 574.342 77.3089 574.074C77.5767 573.807 77.9399 573.656 78.3186 573.656H599.988C600.367 573.656 600.73 573.807 600.998 574.074C601.266 574.342 601.416 574.706 601.416 575.084C601.416 575.463 601.266 575.826 600.998 576.094C600.73 576.362 600.367 576.512 599.988 576.512Z" fill="#262626"/>
<path d="M399 299L419.949 228.936C420.241 227.958 420.743 227.057 421.418 226.298C422.094 225.539 422.927 224.94 423.857 224.543C424.788 224.147 425.793 223.964 426.802 224.006C427.811 224.048 428.798 224.315 429.693 224.788L452.305 236.689C453.283 237.204 454.124 237.949 454.757 238.863C455.389 239.776 455.795 240.83 455.94 241.936C456.085 243.042 455.965 244.167 455.59 245.215C455.214 246.264 454.595 247.206 453.784 247.961L399 299Z" fill="#D3B970"/>
<path d="M393 296L453.662 258.118C454.603 257.531 455.665 257.163 456.768 257.043C457.87 256.923 458.986 257.054 460.031 257.425C461.077 257.796 462.026 258.399 462.808 259.188C463.589 259.977 464.184 260.932 464.548 261.984L472.595 285.354C472.977 286.463 473.091 287.648 472.927 288.811C472.764 289.973 472.327 291.08 471.654 292.04C470.981 293 470.09 293.786 469.054 294.333C468.019 294.881 466.869 295.173 465.699 295.188L393 296Z" fill="#D3B970"/>
<path d="M327.883 399.205C351.539 399.205 370.716 380.028 370.716 356.372C370.716 332.716 351.539 313.539 327.883 313.539C304.227 313.539 285.05 332.716 285.05 356.372C285.05 380.028 304.227 399.205 327.883 399.205Z" fill="#262626"/>
<path d="M235.698 162.428H67.4939C56.8076 162.428 48.1445 171.091 48.1445 181.777V256.248C48.1445 266.934 56.8076 275.597 67.4939 275.597H235.698C246.384 275.597 255.047 266.934 255.047 256.248V181.777C255.047 171.091 246.384 162.428 235.698 162.428Z" fill="white"/>
<path d="M235.7 277.025H67.5033C61.9926 277.019 56.7093 274.828 52.8127 270.931C48.916 267.034 46.7244 261.751 46.7188 256.24V181.785C46.7244 176.274 48.916 170.991 52.8127 167.094C56.7093 163.197 61.9926 161.006 67.5033 161H235.7C241.21 161.008 246.491 163.2 250.386 167.096C254.281 170.993 256.472 176.275 256.478 181.785V256.24C256.472 261.75 254.281 267.032 250.386 270.929C246.491 274.825 241.21 277.017 235.7 277.025ZM67.5033 163.856C62.7495 163.86 58.1915 165.75 54.8301 169.111C51.4686 172.473 49.5785 177.031 49.5748 181.785V256.24C49.5785 260.994 51.4686 265.552 54.8301 268.914C58.1915 272.275 62.7495 274.165 67.5033 274.169H235.7C240.453 274.163 245.009 272.272 248.369 268.911C251.729 265.55 253.618 260.993 253.622 256.24V181.785C253.618 177.032 251.729 172.475 248.369 169.114C245.009 165.753 240.453 163.862 235.7 163.856H67.5033Z" fill="#262626"/>
<path d="M85.9068 200.613C85.5341 200.613 85.1762 200.467 84.9094 200.207C84.6426 199.947 84.4881 199.593 84.4788 199.22C84.3431 193.408 86.4922 189.938 88.3272 188.046C90.3514 185.906 93.1371 184.649 96.0813 184.548H96.1598C99.0032 184.608 101.708 185.788 103.685 187.832C105.556 189.71 107.777 193.208 107.705 199.199C107.705 199.578 107.555 199.941 107.287 200.209C107.019 200.476 106.656 200.627 106.277 200.627C105.898 200.627 105.535 200.476 105.267 200.209C105 199.941 104.849 199.578 104.849 199.199C104.906 194.201 103.15 191.345 101.665 189.881C100.213 188.384 98.2369 187.509 96.1527 187.439H96.1027C93.9288 187.536 91.879 188.479 90.3907 190.067C88.3129 192.209 87.2562 195.365 87.349 199.185C87.3538 199.372 87.3215 199.559 87.2541 199.734C87.1867 199.909 87.0855 200.069 86.9562 200.205C86.8269 200.341 86.6721 200.45 86.5006 200.526C86.3291 200.602 86.1443 200.644 85.9567 200.648L85.9068 200.613Z" fill="#262626"/>
<path d="M116.612 255.655H75.7855C74.7857 255.654 73.7974 255.44 72.887 255.027C71.9765 254.614 71.1649 254.011 70.5064 253.258C69.8479 252.506 69.3578 251.621 69.0689 250.664C68.78 249.707 68.6989 248.699 68.8312 247.708L74.5432 205.268C74.7682 203.583 75.5974 202.038 76.8766 200.919C78.1558 199.8 79.798 199.183 81.4975 199.185H109.958C111.63 199.185 113.247 199.782 114.518 200.868C115.789 201.955 116.63 203.459 116.891 205.111L123.524 247.558C123.681 248.557 123.621 249.579 123.346 250.552C123.071 251.526 122.589 252.429 121.932 253.198C121.276 253.967 120.46 254.585 119.541 255.01C118.623 255.434 117.624 255.654 116.612 255.655Z" fill="#FFE18B"/>
<path d="M227.529 192.709H150.168C147.096 192.709 144.605 195.199 144.605 198.271V202.59C144.605 205.662 147.096 208.153 150.168 208.153H227.529C230.601 208.153 233.091 205.662 233.091 202.59V198.271C233.091 195.199 230.601 192.709 227.529 192.709Z" fill="#FFBB45"/>
<path d="M229.399 227.702H148.303C147.924 227.702 147.561 227.551 147.293 227.283C147.025 227.016 146.875 226.652 146.875 226.274C146.875 225.895 147.025 225.532 147.293 225.264C147.561 224.996 147.924 224.846 148.303 224.846H229.399C229.778 224.846 230.141 224.996 230.409 225.264C230.677 225.532 230.827 225.895 230.827 226.274C230.827 226.652 230.677 227.016 230.409 227.283C230.141 227.551 229.778 227.702 229.399 227.702Z" fill="#262626"/>
<path d="M217.982 246.052H148.303C147.924 246.052 147.561 245.901 147.293 245.633C147.025 245.366 146.875 245.002 146.875 244.624C146.875 244.245 147.025 243.882 147.293 243.614C147.561 243.346 147.924 243.196 148.303 243.196H217.982C218.361 243.196 218.724 243.346 218.992 243.614C219.26 243.882 219.41 244.245 219.41 244.624C219.41 245.002 219.26 245.366 218.992 245.633C218.724 245.901 218.361 246.052 217.982 246.052Z" fill="#262626"/>
<path d="M455.975 436.161C480.707 436.161 500.757 416.239 500.757 391.665C500.757 367.09 480.707 347.168 455.975 347.168C431.242 347.168 411.193 367.09 411.193 391.665C411.193 416.239 431.242 436.161 455.975 436.161Z" fill="#262626"/>
<path d="M411.193 376.128C435.925 376.128 455.975 356.206 455.975 331.632C455.975 307.057 435.925 287.135 411.193 287.135C386.46 287.135 366.41 307.057 366.41 331.632C366.41 356.206 386.46 376.128 411.193 376.128Z" fill="#262626"/>
<path d="M371.851 324.484H344.633C337.933 324.484 331.299 323.165 325.109 320.6C318.919 318.036 313.295 314.278 308.558 309.54C303.82 304.802 300.063 299.177 297.499 292.987C294.936 286.797 293.617 280.162 293.618 273.462V238.647C293.628 230.644 296.814 222.972 302.477 217.317C308.14 211.662 315.817 208.486 323.82 208.488H360.57C373.023 208.488 384.965 213.435 393.77 222.24C402.576 231.045 407.523 242.988 407.523 255.441V288.877C407.519 293.558 406.593 298.191 404.798 302.514C403.004 306.837 400.375 310.763 397.062 314.07C393.75 317.376 389.818 319.998 385.493 321.785C381.167 323.572 376.531 324.489 371.851 324.484Z" fill="#262626"/>
<path d="M304.878 220.412C304.878 220.412 288.727 222.797 284.486 256.954C283.984 261.127 282.184 265.036 279.338 268.128L276.739 270.942C276.084 271.65 275.711 272.574 275.691 273.538C275.672 274.503 276.006 275.441 276.632 276.175L280.152 280.316L278.374 302.165C278.374 302.165 274.804 325.448 302.215 324.727H319.651V348.882H374.45V307.363C374.45 307.363 386.938 305.221 389.208 292.926C389.782 289.852 389.652 286.689 388.829 283.673C388.005 280.657 386.509 277.867 384.453 275.511C380.362 270.877 373.151 266.943 361.277 272.484C361.284 272.484 314.117 281.952 304.878 220.412Z" fill="white"/>
<path d="M368.847 297.672C367.75 297.4 366.759 296.809 365.998 295.974C365.238 295.139 364.742 294.096 364.574 292.979C364.405 291.862 364.572 290.72 365.053 289.698C365.533 288.676 366.307 287.819 367.274 287.236C368.242 286.653 369.361 286.37 370.489 286.423C371.618 286.475 372.705 286.862 373.614 287.533C374.523 288.204 375.213 289.129 375.596 290.192C375.979 291.255 376.038 292.407 375.766 293.504C375.401 294.974 374.467 296.239 373.17 297.021C371.872 297.803 370.317 298.037 368.847 297.672ZM370.92 289.315C370.372 289.179 369.795 289.208 369.264 289.4C368.733 289.591 368.27 289.936 367.934 290.391C367.599 290.845 367.406 291.389 367.379 291.953C367.353 292.517 367.494 293.077 367.786 293.561C368.077 294.044 368.506 294.431 369.017 294.671C369.528 294.912 370.099 294.995 370.658 294.911C371.216 294.827 371.737 294.579 372.155 294.199C372.573 293.818 372.868 293.323 373.004 292.774C373.187 292.039 373.069 291.262 372.679 290.613C372.288 289.964 371.655 289.497 370.92 289.315Z" fill="#262626"/>
<path d="M365.706 292.457C365.346 292.368 365.034 292.142 364.838 291.827C364.641 291.512 364.575 291.132 364.654 290.769C365.267 287.883 366.693 285.78 368.904 284.519C373.291 282.017 379.11 283.917 379.333 283.994C379.694 284.114 379.992 284.372 380.162 284.711C380.332 285.051 380.361 285.444 380.241 285.805C380.122 286.165 379.864 286.463 379.524 286.634C379.184 286.804 378.791 286.832 378.431 286.713C378.382 286.701 373.555 285.135 370.264 287.012C368.78 287.865 367.846 289.288 367.403 291.37C367.364 291.555 367.289 291.729 367.183 291.884C367.076 292.04 366.94 292.172 366.782 292.274C366.624 292.377 366.447 292.447 366.262 292.481C366.077 292.514 365.887 292.511 365.703 292.471L365.706 292.457Z" fill="#262626"/>
<path d="M308.381 270.798C310.212 270.442 311.408 268.67 311.053 266.839C310.698 265.008 308.925 263.812 307.094 264.167C305.263 264.522 304.067 266.294 304.422 268.125C304.778 269.957 306.55 271.153 308.381 270.798Z" fill="#262626"/>
<path d="M302.162 301.017C300.813 301.284 299.424 301.276 298.077 300.995C293.717 300.073 290.139 296.105 289.181 291.127C289.101 290.71 289.114 290.28 289.219 289.868C289.323 289.456 289.517 289.071 289.786 288.742C290.054 288.413 290.392 288.146 290.775 287.961C291.157 287.776 291.576 287.677 292.001 287.671L309.298 287.413C309.74 287.409 310.178 287.506 310.578 287.696C310.978 287.885 311.33 288.163 311.607 288.509C311.884 288.854 312.079 289.258 312.178 289.689C312.276 290.121 312.275 290.569 312.176 291.001C310.955 296.183 306.795 300.118 302.162 301.017ZM292.025 290.495C292.021 290.517 292.026 290.54 292.038 290.559C292.788 294.428 295.469 297.486 298.724 298.178C303.714 299.232 308.377 294.851 309.446 290.279L309.388 290.203L292.084 290.462L292.025 290.495Z" fill="#262626"/>
<path d="M319.201 324.756H345.383C345.615 324.758 345.84 324.839 346.019 324.986C346.198 325.134 346.322 325.338 346.368 325.565C346.415 325.792 346.383 326.029 346.276 326.235C346.17 326.441 345.996 326.604 345.783 326.698L319.201 338.05V324.756Z" fill="#262626"/>
<path d="M319.201 348.325C319.195 347.023 319.609 345.753 320.38 344.704C321.152 343.655 322.24 342.882 323.485 342.499C324.437 342.21 325.415 342.014 326.405 341.913C330.145 341.567 333.891 342.495 337.036 344.548C339.663 342.513 342.889 341.405 346.211 341.397C349.534 341.39 352.765 342.482 355.401 344.505C358.06 342.719 361.167 341.715 364.368 341.606C366.377 341.551 368.379 341.855 370.28 342.506C371.465 342.92 372.491 343.692 373.216 344.715C373.942 345.739 374.331 346.963 374.329 348.218V360.713H319.201V348.325Z" fill="#FFE18B"/>
<path d="M531.766 528.574L216.713 528.31L230.679 400.454C232.003 388.337 237.747 377.134 246.812 368.985C255.877 360.837 267.628 356.316 279.817 356.286L410.057 355.958C425.253 355.921 440.113 360.424 452.731 368.891C465.35 377.357 475.151 389.4 480.879 403.474C507.297 464.221 526.411 508.575 528.496 513.837C529.488 516.417 530.283 519.069 530.873 521.77C531.337 524.013 531.635 526.287 531.766 528.574Z" fill="#FFE18B"/>
<path d="M436.447 528.41H274.954V418.961H396.827C398.492 418.961 400.113 419.494 401.453 420.482C402.793 421.47 403.782 422.861 404.274 424.452L436.447 528.41Z" fill="#262626"/>
<path d="M396.805 420.389C396.465 420.394 396.134 420.277 395.873 420.06C395.611 419.843 395.435 419.539 395.377 419.204C394.978 416.84 385.788 361.291 404.959 354.615C405.317 354.49 405.71 354.513 406.052 354.677C406.393 354.842 406.655 355.136 406.78 355.494C406.905 355.851 406.883 356.244 406.718 356.586C406.553 356.927 406.26 357.189 405.902 357.314C391.857 362.198 395.577 403.303 398.198 418.718C398.229 418.903 398.224 419.093 398.183 419.276C398.141 419.46 398.063 419.633 397.955 419.786C397.846 419.939 397.708 420.069 397.549 420.169C397.389 420.269 397.212 420.336 397.027 420.368C396.954 420.381 396.88 420.388 396.805 420.389Z" fill="#262626"/>
<path d="M278.524 420.389C278.202 420.39 277.889 420.281 277.637 420.082C277.384 419.882 277.206 419.603 277.132 419.289C273.403 403.746 273.303 387.554 276.839 371.966C278.121 366.416 279.87 360.985 282.066 355.729C282.218 355.39 282.497 355.124 282.843 354.987C283.189 354.851 283.575 354.854 283.918 354.998C284.261 355.141 284.535 355.412 284.681 355.754C284.827 356.096 284.834 356.482 284.7 356.829C282.568 361.937 280.87 367.215 279.624 372.608C276.184 387.771 276.284 403.522 279.917 418.64C279.959 418.823 279.965 419.012 279.934 419.197C279.903 419.382 279.836 419.559 279.736 419.718C279.637 419.878 279.507 420.016 279.354 420.125C279.201 420.233 279.028 420.311 278.846 420.353C278.74 420.379 278.632 420.391 278.524 420.389Z" fill="#262626"/>
<path d="M258.112 323.349C256.627 321.43 254.924 319.69 253.036 318.166L252.957 318.094C249.426 314.96 246.358 311.339 243.846 307.341C241.619 303.771 240.276 300.116 238.092 294.489C236.999 291.691 236.228 289.491 235.8 288.263C230.709 273.641 227.367 260.532 222.198 258.647C221.42 258.383 220.611 258.217 219.792 258.154C218.701 258.052 217.601 258.169 216.556 258.499C215.511 258.829 214.543 259.365 213.708 260.075C213.155 260.547 212.674 261.098 212.28 261.71C210.281 264.887 211.274 269.492 213.323 278.567C213.651 279.995 213.944 281.173 214.137 281.959L218.285 300.98C218.285 300.98 208.089 303.286 208.66 311.368C208.66 311.368 199.236 305.785 195.58 316.752C195.58 316.752 183.656 317.716 187.119 330.796C187.119 330.796 191.924 348.304 199.043 348.882C199.043 348.882 198.302 377.548 221 389.5H258.112L259.968 372.901C266.394 345.055 263.496 336.023 262.418 332.681C261.375 329.404 259.929 326.269 258.112 323.349Z" fill="white"/>
<path d="M225.21 372.665C224.985 372.666 224.763 372.613 224.562 372.511C224.361 372.41 224.187 372.262 224.054 372.08C219.767 366.26 217.106 359.404 216.343 352.216C214.722 335.794 224.104 323.656 227.945 319.479L224.968 311.797C224.675 311.019 224.296 310.026 223.875 309.041C221.512 303.55 220.448 298.938 220.719 295.325C220.796 294.234 221.093 293.169 221.593 292.196C222.092 291.223 222.784 290.361 223.625 289.663C224.45 288.975 225.405 288.463 226.434 288.156C227.462 287.849 228.542 287.754 229.609 287.878C236.077 288.592 239.947 295.989 240.112 296.296C240.198 296.463 240.25 296.645 240.266 296.832C240.282 297.019 240.261 297.208 240.204 297.387C240.147 297.566 240.055 297.732 239.934 297.876C239.813 298.019 239.664 298.137 239.498 298.224C239.331 298.31 239.148 298.362 238.961 298.378C238.774 298.394 238.586 298.373 238.406 298.316C238.227 298.259 238.061 298.167 237.918 298.046C237.774 297.925 237.656 297.777 237.57 297.61C237.57 297.545 234.235 291.262 229.295 290.72C228.609 290.639 227.914 290.699 227.253 290.895C226.591 291.092 225.977 291.421 225.446 291.862C224.9 292.316 224.453 292.876 224.13 293.508C223.807 294.14 223.616 294.831 223.568 295.539C223.333 298.688 224.318 302.85 226.496 307.913C226.945 308.948 227.338 309.99 227.638 310.769L231.265 320.122L230.63 320.779C227.538 323.985 217.585 335.702 219.206 351.924C219.909 358.6 222.373 364.969 226.346 370.381C226.568 370.686 226.661 371.067 226.604 371.44C226.546 371.813 226.343 372.149 226.039 372.373C225.8 372.555 225.51 372.657 225.21 372.665Z" fill="#262626"/>
<path d="M306.092 521.434C296.422 520.797 286.719 521.949 277.467 524.833C243.046 535.678 227.773 567.466 224.531 574.663L306.092 575.084V521.434Z" fill="white"/>
<path d="M307.52 576.519L222.325 576.077L223.225 574.077C228.551 562.282 244.445 533.744 277.039 523.469C286.456 520.532 296.334 519.358 306.177 520.006L307.52 520.092V576.519ZM226.766 573.249L304.664 573.649V522.784C295.608 522.343 286.546 523.505 277.896 526.218C248.115 535.579 232.714 560.847 226.766 573.249Z" fill="#262626"/>
<path d="M212.438 352.823C211.044 352.837 209.665 352.534 208.404 351.938C206.834 351.169 205.504 349.986 204.556 348.518C204.066 349.115 203.455 349.602 202.764 349.946C201.451 350.567 199.949 350.657 198.572 350.196C198.396 350.131 198.234 350.033 198.096 349.906C197.958 349.78 197.846 349.627 197.766 349.457C197.687 349.287 197.642 349.103 197.634 348.915C197.626 348.728 197.655 348.541 197.719 348.364C197.783 348.188 197.882 348.026 198.008 347.888C198.135 347.75 198.288 347.638 198.458 347.558C198.628 347.479 198.812 347.434 199 347.426C199.187 347.418 199.374 347.447 199.551 347.511C200.202 347.707 200.903 347.659 201.521 347.375C201.953 347.098 202.325 346.737 202.615 346.314C202.906 345.891 203.109 345.414 203.213 344.912L204.641 340.264L205.977 344.933C205.977 344.933 206.926 348.054 209.682 349.353C211.639 350.281 214.123 350.117 217.065 348.875C217.239 348.793 217.427 348.747 217.62 348.74C217.812 348.733 218.003 348.764 218.183 348.833C218.362 348.902 218.526 349.006 218.664 349.139C218.803 349.273 218.913 349.433 218.988 349.61C219.063 349.787 219.101 349.977 219.101 350.169C219.101 350.361 219.061 350.551 218.986 350.728C218.91 350.905 218.8 351.064 218.661 351.197C218.523 351.33 218.359 351.434 218.179 351.502C216.373 352.322 214.421 352.771 212.438 352.823Z" fill="#262626"/>
<path d="M204.574 346.768C204.271 346.767 203.976 346.67 203.732 346.49C203.488 346.31 203.308 346.058 203.217 345.769L194.206 317.166C194.093 316.804 194.127 316.412 194.303 316.076C194.478 315.74 194.78 315.487 195.142 315.374C195.503 315.26 195.895 315.295 196.231 315.47C196.568 315.646 196.82 315.947 196.934 316.309L205.909 344.912C205.965 345.091 205.986 345.28 205.969 345.467C205.953 345.654 205.9 345.836 205.813 346.002C205.726 346.169 205.607 346.316 205.463 346.437C205.319 346.557 205.153 346.648 204.973 346.704C204.844 346.744 204.709 346.766 204.574 346.768Z" fill="#262626"/>
<path d="M218.712 340.849C218.417 340.849 218.13 340.757 217.89 340.587C217.65 340.417 217.468 340.177 217.369 339.9L207.338 311.832C207.274 311.656 207.246 311.468 207.256 311.281C207.265 311.093 207.311 310.909 207.391 310.74C207.471 310.57 207.584 310.418 207.723 310.291C207.862 310.165 208.025 310.068 208.202 310.005C208.378 309.941 208.566 309.913 208.753 309.923C208.941 309.932 209.125 309.978 209.294 310.058C209.464 310.138 209.616 310.251 209.742 310.39C209.869 310.529 209.966 310.692 210.029 310.869L220.025 338.943C220.102 339.159 220.126 339.39 220.094 339.617C220.063 339.844 219.978 340.06 219.845 340.246C219.713 340.433 219.538 340.586 219.334 340.691C219.131 340.796 218.905 340.85 218.676 340.849H218.712Z" fill="#262626"/>
<path d="M592.584 190.717H499.157C485.608 190.717 474.624 201.699 474.624 215.246C474.624 228.793 485.608 239.776 499.157 239.776H592.584C606.133 239.776 617.117 228.793 617.117 215.246C617.117 201.699 606.133 190.717 592.584 190.717Z" fill="white"/>
<path d="M592.62 241.211H499.15C492.265 241.211 485.662 238.475 480.793 233.607C475.924 228.738 473.189 222.135 473.189 215.25C473.189 208.364 475.924 201.761 480.793 196.892C485.662 192.024 492.265 189.289 499.15 189.289H592.62C599.505 189.289 606.109 192.024 610.977 196.892C615.846 201.761 618.581 208.364 618.581 215.25C618.581 222.135 615.846 228.738 610.977 233.607C606.109 238.475 599.505 241.211 592.62 241.211ZM499.15 192.145C493.022 192.145 487.146 194.579 482.813 198.912C478.479 203.245 476.045 209.122 476.045 215.25C476.045 221.377 478.479 227.254 482.813 231.587C487.146 235.92 493.022 238.355 499.15 238.355H592.62C598.748 238.355 604.625 235.92 608.958 231.587C613.291 227.254 615.725 221.377 615.725 215.25C615.725 209.122 613.291 203.245 608.958 198.912C604.625 194.579 598.748 192.145 592.62 192.145H499.15Z" fill="#262626"/>
<path d="M507.047 221.25C510.361 221.25 513.047 218.563 513.047 215.25C513.047 211.936 510.361 209.25 507.047 209.25C503.733 209.25 501.047 211.936 501.047 215.25C501.047 218.563 503.733 221.25 507.047 221.25Z" fill="#F9B800"/>
<path d="M545.869 226.499C552.082 226.499 557.118 221.463 557.118 215.25C557.118 209.037 552.082 204 545.869 204C539.656 204 534.619 209.037 534.619 215.25C534.619 221.463 539.656 226.499 545.869 226.499Z" fill="#F9B800"/>
<path d="M584.688 221.25C588.001 221.25 590.688 218.563 590.688 215.25C590.688 211.936 588.001 209.25 584.688 209.25C581.374 209.25 578.688 211.936 578.688 215.25C578.688 218.563 581.374 221.25 584.688 221.25Z" fill="#F9B800"/>
<path d="M125.841 344.449H80.4664C71.1759 344.449 63.6445 351.981 63.6445 361.271V406.646C63.6445 415.936 71.1759 423.468 80.4664 423.468H125.841C135.132 423.468 142.663 415.936 142.663 406.646V361.271C142.663 351.981 135.132 344.449 125.841 344.449Z" fill="white"/>
<path d="M125.836 424.896H80.4686C75.6295 424.888 70.9909 422.962 67.5698 419.54C64.1488 416.117 62.2244 411.478 62.2188 406.639V361.257C62.2244 356.418 64.1488 351.779 67.5698 348.356C70.9909 344.934 75.6295 343.008 80.4686 343H125.836C130.676 343.006 135.317 344.931 138.74 348.354C142.162 351.776 144.087 356.417 144.093 361.257V406.617C144.093 411.461 142.17 416.107 138.747 419.535C135.324 422.962 130.68 424.89 125.836 424.896ZM80.4686 345.877C76.3895 345.881 72.4784 347.502 69.5927 350.385C66.707 353.268 65.0823 357.178 65.0748 361.257V406.617C65.0785 410.7 66.7014 414.614 69.5872 417.501C72.4731 420.388 76.3864 422.013 80.4686 422.018H125.836C129.919 422.013 133.833 420.388 136.72 417.501C139.607 414.614 141.231 410.7 141.237 406.617V361.257C141.233 357.174 139.61 353.258 136.722 350.371C133.835 347.484 129.92 345.86 125.836 345.856L80.4686 345.877Z" fill="#262626"/>
<path d="M125.192 371.046C124.319 369.443 123.016 368.115 121.429 367.212C114.139 363.135 106.778 365.662 103.172 370.96C99.5164 365.598 92.0122 363.063 84.6081 367.39C83.2646 368.172 82.1418 369.283 81.3451 370.617C77.9964 376.244 78.6533 381.892 81.4665 385.911C81.5172 385.983 81.5721 386.053 81.6307 386.118V386.154C81.6878 386.233 85.2721 390.388 87.514 392.659C91.7939 396.828 96.2812 400.779 100.959 404.497C101.564 404.99 102.32 405.259 103.101 405.259C103.881 405.259 104.638 404.99 105.243 404.497C109.277 401.277 112.554 398.485 114.989 396.35C116.849 394.802 118.604 393.132 120.244 391.352C123.742 387.489 131.446 382.427 125.192 371.046Z" fill="#D3B970"/>
<path d="M651.766 295.525H512.501C499.243 295.525 488.496 306.272 488.496 319.529V471.99C488.496 485.247 499.243 495.994 512.501 495.994H651.766C665.024 495.994 675.771 485.247 675.771 471.99V319.529C675.771 306.272 665.024 295.525 651.766 295.525Z" fill="white"/>
<path d="M651.765 497.422H512.499C505.756 497.415 499.292 494.733 494.524 489.965C489.756 485.197 487.074 478.733 487.066 471.99V319.529C487.074 312.787 489.756 306.322 494.524 301.554C499.292 296.786 505.756 294.104 512.499 294.097H651.765C658.508 294.104 664.972 296.786 669.74 301.554C674.508 306.322 677.19 312.787 677.197 319.529V471.99C677.19 478.733 674.508 485.197 669.74 489.965C664.972 494.733 658.508 497.415 651.765 497.422ZM512.499 296.953C506.514 296.96 500.776 299.341 496.543 303.574C492.311 307.806 489.93 313.544 489.922 319.529V471.99C489.93 477.975 492.311 483.713 496.543 487.946C500.776 492.178 506.514 494.559 512.499 494.566H651.765C657.75 494.559 663.488 492.178 667.721 487.946C671.953 483.713 674.334 477.975 674.341 471.99V319.529C674.336 313.543 671.955 307.804 667.723 303.571C663.49 299.339 657.751 296.958 651.765 296.953H512.499Z" fill="#262626"/>
<path d="M535.284 370.916H516.656C511.25 370.916 506.867 375.298 506.867 380.705V399.333C506.867 404.739 511.25 409.122 516.656 409.122H535.284C540.691 409.122 545.073 404.739 545.073 399.333V380.705C545.073 375.298 540.691 370.916 535.284 370.916Z" fill="#FFF1C9"/>
<path d="M535.284 428.914H516.656C511.25 428.914 506.867 433.297 506.867 438.703V457.331C506.867 462.738 511.25 467.12 516.656 467.12H535.284C540.691 467.12 545.073 462.738 545.073 457.331V438.703C545.073 433.297 540.691 428.914 535.284 428.914Z" fill="#FFF1C9"/>
<path d="M654.892 380.726H568.655C568.276 380.726 567.913 380.576 567.645 380.308C567.377 380.04 567.227 379.677 567.227 379.298C567.227 378.919 567.377 378.556 567.645 378.288C567.913 378.021 568.276 377.87 568.655 377.87H654.892C655.27 377.87 655.633 378.021 655.901 378.288C656.169 378.556 656.32 378.919 656.32 379.298C656.32 379.677 656.169 380.04 655.901 380.308C655.633 380.576 655.27 380.726 654.892 380.726Z" fill="#262626"/>
<path d="M621.812 401.753H568.655C568.276 401.753 567.913 401.603 567.645 401.335C567.377 401.067 567.227 400.704 567.227 400.325C567.227 399.947 567.377 399.584 567.645 399.316C567.913 399.048 568.276 398.897 568.655 398.897H621.812C622.191 398.897 622.554 399.048 622.822 399.316C623.089 399.584 623.24 399.947 623.24 400.325C623.24 400.704 623.089 401.067 622.822 401.335C622.554 401.603 622.191 401.753 621.812 401.753Z" fill="#262626"/>
<path d="M654.892 438.931H568.655C568.276 438.931 567.913 438.781 567.645 438.513C567.377 438.245 567.227 437.882 567.227 437.503C567.227 437.125 567.377 436.762 567.645 436.494C567.913 436.226 568.276 436.075 568.655 436.075H654.892C655.27 436.075 655.633 436.226 655.901 436.494C656.169 436.762 656.32 437.125 656.32 437.503C656.32 437.882 656.169 438.245 655.901 438.513C655.633 438.781 655.27 438.931 654.892 438.931Z" fill="#262626"/>
<path d="M621.812 459.959H568.655C568.276 459.959 567.913 459.808 567.645 459.541C567.377 459.273 567.227 458.91 567.227 458.531C567.227 458.152 567.377 457.789 567.645 457.521C567.913 457.253 568.276 457.103 568.655 457.103H621.812C622.191 457.103 622.554 457.253 622.822 457.521C623.089 457.789 623.24 458.152 623.24 458.531C623.24 458.91 623.089 459.273 622.822 459.541C622.554 459.808 622.191 459.959 621.812 459.959Z" fill="#262626"/>
<path d="M540.939 322.393C540.343 321.294 539.45 320.386 538.361 319.772C533.363 316.973 528.323 318.708 525.852 322.343C523.346 318.665 518.205 316.93 513.143 319.879C512.225 320.42 511.459 321.184 510.915 322.1C508.616 325.948 509.066 329.818 510.994 332.574C511.028 332.625 511.066 332.673 511.108 332.717C511.151 332.774 513.607 335.623 515.142 337.179C516.456 338.5 519.697 341.528 524.353 345.283C524.766 345.617 525.282 345.798 525.813 345.798C526.344 345.798 526.859 345.617 527.273 345.283C530.036 343.07 532.271 341.156 533.949 339.7C535.21 338.639 536.403 337.499 537.519 336.287C539.946 333.667 545.23 330.197 540.939 322.393Z" fill="#D3B970"/>
<path d="M470.655 589.685H316.002C313.642 589.686 311.306 589.222 309.125 588.32C306.945 587.418 304.964 586.095 303.295 584.426C301.626 582.758 300.302 580.777 299.399 578.597C298.496 576.417 298.031 574.081 298.031 571.721V542.069C298.033 531.49 302.236 521.344 309.717 513.864C317.197 506.383 327.343 502.18 337.922 502.178H505.369C512.376 502.178 519.095 504.961 524.05 509.915C529.004 514.87 531.787 521.589 531.787 528.596C531.784 536.621 530.201 544.567 527.127 551.98C524.053 559.394 519.55 566.129 513.873 571.801C508.196 577.474 501.458 581.973 494.042 585.042C486.627 588.11 478.68 589.688 470.655 589.685Z" fill="#FFE18B"/>
<path d="M231.5 592.52C225.098 592.387 218.784 590.995 212.92 588.422C207.056 585.849 201.756 582.146 197.323 577.525C192.89 572.904 189.411 567.454 187.084 561.488C184.757 555.522 183.628 549.157 183.762 542.754L186.425 414.627C186.581 407.269 189.652 400.274 194.963 395.179C200.275 390.085 207.392 387.308 214.75 387.459L256.769 388.337C264.121 388.497 271.109 391.569 276.197 396.879C281.285 402.189 284.056 409.302 283.901 416.655L281.266 544.782C281.133 551.184 279.741 557.498 277.168 563.362C274.595 569.226 270.892 574.526 266.271 578.959C261.65 583.392 256.2 586.871 250.234 589.198C244.268 591.525 237.902 592.654 231.5 592.52Z" fill="#FFE18B"/>
<path d="M460.173 502.17H421.403C421.024 502.17 420.661 502.02 420.393 501.752C420.125 501.484 419.975 501.121 419.975 500.742C419.975 500.364 420.125 500 420.393 499.733C420.661 499.465 421.024 499.314 421.403 499.314H460.173C460.552 499.314 460.915 499.465 461.183 499.733C461.451 500 461.601 500.364 461.601 500.742C461.601 501.121 461.451 501.484 461.183 501.752C460.915 502.02 460.552 502.17 460.173 502.17Z" fill="#262626"/>
<path d="M415.405 294.575C413.353 294.575 411.347 293.967 409.64 292.827C407.933 291.687 406.602 290.067 405.816 288.171C405.03 286.276 404.823 284.189 405.222 282.176C405.62 280.163 406.607 278.313 408.057 276.86C409.507 275.407 411.354 274.417 413.367 274.014C415.379 273.611 417.466 273.814 419.363 274.596C421.261 275.378 422.883 276.706 424.027 278.41C425.17 280.115 425.783 282.12 425.787 284.172C425.789 285.537 425.522 286.889 425.001 288.15C424.48 289.412 423.716 290.559 422.752 291.525C421.787 292.491 420.642 293.257 419.382 293.781C418.121 294.304 416.77 294.574 415.405 294.575ZM415.405 276.668C413.916 276.668 412.46 277.11 411.222 277.938C409.984 278.766 409.019 279.942 408.45 281.319C407.882 282.695 407.734 284.209 408.026 285.67C408.318 287.13 409.037 288.471 410.091 289.522C411.146 290.574 412.489 291.289 413.95 291.577C415.411 291.865 416.925 291.713 418.3 291.14C419.675 290.567 420.849 289.599 421.673 288.359C422.497 287.118 422.935 285.661 422.931 284.172C422.923 282.18 422.127 280.273 420.717 278.867C419.307 277.46 417.397 276.67 415.405 276.668Z" fill="#262626"/>
<path d="M284.101 420.389C283.722 420.389 283.359 420.239 283.091 419.971C282.823 419.703 282.673 419.34 282.673 418.961C282.487 390.465 259.182 389.844 258.204 389.844C257.825 389.844 257.462 389.694 257.194 389.426C256.926 389.158 256.776 388.795 256.776 388.416C256.776 388.037 256.926 387.674 257.194 387.406C257.462 387.139 257.825 386.988 258.204 386.988C258.475 386.988 285.293 387.609 285.5 418.968C285.5 419.347 285.35 419.71 285.082 419.978C284.814 420.246 284.451 420.396 284.072 420.396L284.101 420.389Z" fill="#262626"/>
<path d="M367.581 357.8H323.313C322.935 357.8 322.572 357.649 322.304 357.381C322.036 357.114 321.885 356.75 321.885 356.372C321.885 355.993 322.036 355.63 322.304 355.362C322.572 355.094 322.935 354.944 323.313 354.944H367.581C367.96 354.944 368.323 355.094 368.591 355.362C368.859 355.63 369.009 355.993 369.009 356.372C369.009 356.75 368.859 357.114 368.591 357.381C368.323 357.649 367.96 357.8 367.581 357.8Z" fill="#262626"/>
<path d="M325.627 584.138C325.248 584.138 324.885 583.987 324.617 583.719C324.349 583.452 324.199 583.088 324.199 582.71V517.936C324.199 517.557 324.349 517.194 324.617 516.926C324.885 516.658 325.248 516.508 325.627 516.508C326.005 516.508 326.369 516.658 326.636 516.926C326.904 517.194 327.055 517.557 327.055 517.936V582.71C327.055 583.088 326.904 583.452 326.636 583.719C326.369 583.987 326.005 584.138 325.627 584.138Z" fill="#262626"/>
<path d="M266.786 414.32H202.019C201.64 414.32 201.277 414.17 201.009 413.902C200.742 413.634 200.591 413.271 200.591 412.892C200.591 412.513 200.742 412.15 201.009 411.882C201.277 411.614 201.64 411.464 202.019 411.464H266.786C267.165 411.464 267.528 411.614 267.796 411.882C268.064 412.15 268.214 412.513 268.214 412.892C268.214 413.271 268.064 413.634 267.796 413.902C267.528 414.17 267.165 414.32 266.786 414.32Z" fill="#262626"/>
<path d="M111.256 511.145C110.963 511.146 110.677 511.056 110.437 510.889C110.197 510.722 110.014 510.485 109.913 510.21C101.631 487.619 84.5091 469.276 84.3378 469.098C84.0774 468.822 83.9371 468.455 83.9478 468.076C83.9585 467.697 84.1194 467.338 84.3949 467.077C84.6704 466.817 85.0381 466.677 85.417 466.687C85.796 466.698 86.1551 466.859 86.4155 467.134C86.5869 467.32 104.108 486.07 112.598 509.26C112.727 509.616 112.71 510.007 112.551 510.35C112.391 510.693 112.103 510.958 111.748 511.088C111.589 511.138 111.422 511.157 111.256 511.145Z" fill="#262626"/>
<path d="M119.338 513.473C118.959 513.473 118.596 513.323 118.328 513.055C118.06 512.787 117.91 512.424 117.91 512.045V492.489C117.91 492.11 118.06 491.747 118.328 491.479C118.596 491.211 118.959 491.061 119.338 491.061C119.717 491.061 120.08 491.211 120.348 491.479C120.615 491.747 120.766 492.11 120.766 492.489V512.045C120.766 512.424 120.615 512.787 120.348 513.055C120.08 513.323 119.717 513.473 119.338 513.473Z" fill="#262626"/>
<path d="M161.414 541.455C161.412 536.78 159.554 532.297 156.249 528.992C152.943 525.686 148.46 523.828 143.785 523.826H139.858V510.51H91.2634V523.833H87.3364C82.661 523.833 78.1771 525.691 74.8711 528.997C71.5651 532.303 69.7078 536.786 69.7078 541.462C69.7134 546.133 71.5735 550.611 74.8791 553.911C78.1847 557.211 82.6654 559.064 87.3364 559.062C85.0217 559.061 82.7295 559.516 80.5908 560.401C78.452 561.286 76.5086 562.584 74.8715 564.221C73.2344 565.857 71.9358 567.8 71.0498 569.938C70.1638 572.077 69.7078 574.369 69.7078 576.684C69.7068 578.999 70.1622 581.292 71.0478 583.431C71.9333 585.57 73.2318 587.514 74.869 589.151C76.5062 590.788 78.4499 592.087 80.5891 592.972C82.7284 593.858 85.0211 594.313 87.3364 594.312H143.785C148.461 594.312 152.945 592.455 156.251 589.149C159.557 585.843 161.414 581.359 161.414 576.684C161.412 572.009 159.554 567.527 156.248 564.223C152.942 560.918 148.459 559.062 143.785 559.062C148.457 559.062 152.938 557.208 156.243 553.906C159.548 550.605 161.408 546.126 161.414 541.455Z" fill="#F9B800"/>
<path d="M143.93 561H115.07C114.521 561 113.994 560.842 113.606 560.561C113.218 560.279 113 559.898 113 559.5C113 559.102 113.218 558.721 113.606 558.439C113.994 558.158 114.521 558 115.07 558H143.93C144.479 558 145.006 558.158 145.394 558.439C145.782 558.721 146 559.102 146 559.5C146 559.898 145.782 560.279 145.394 560.561C145.006 560.842 144.479 561 143.93 561Z" fill="#262626"/>
<path d="M96.7042 560.49H86.2798C85.9011 560.49 85.5379 560.34 85.2701 560.072C85.0023 559.804 84.8518 559.441 84.8518 559.062C84.8518 558.683 85.0023 558.32 85.2701 558.052C85.5379 557.785 85.9011 557.634 86.2798 557.634H96.7042C97.0829 557.634 97.4462 557.785 97.714 558.052C97.9818 558.32 98.1322 558.683 98.1322 559.062C98.1322 559.441 97.9818 559.804 97.714 560.072C97.4462 560.34 97.0829 560.49 96.7042 560.49Z" fill="#262626"/>
<path d="M115.568 514.651C129.232 514.651 140.308 512.343 140.308 509.496C140.308 506.649 129.232 504.341 115.568 504.341C101.904 504.341 90.8279 506.649 90.8279 509.496C90.8279 512.343 101.904 514.651 115.568 514.651Z" fill="#262626"/>
<path d="M119.5 497C128.613 497 136 489.613 136 480.5C136 471.387 128.613 464 119.5 464C110.387 464 103 471.387 103 480.5C103 489.613 110.387 497 119.5 497Z" fill="#FFBB45"/>
<path d="M81 481C90.9411 481 99 473.165 99 463.5C99 453.835 90.9411 446 81 446C71.0589 446 63 453.835 63 463.5C63 473.165 71.0589 481 81 481Z" fill="#FFBB45"/>
<path d="M231.771 276.097C230.343 272.198 228.28 267.193 225.381 263.009C222.925 259.439 220.119 257.94 217.034 258.475C216.142 258.582 215.285 258.884 214.523 259.361C213.762 259.837 213.115 260.476 212.629 261.231C210.194 265.137 211.815 272.027 212.629 274.797L212.736 275.154L210.016 276.018L209.887 275.597C208.752 271.684 207.274 264.423 210.208 259.718C210.904 258.618 211.832 257.684 212.927 256.982C214.023 256.281 215.259 255.827 216.549 255.655C220.768 254.941 224.638 256.897 227.737 261.367C230.836 265.837 232.942 271.035 234.456 275.083L231.771 276.097Z" fill="#262626"/>
</svg>
